<svg width="282" height="52" viewBox="0 0 282 52" fill="none" xmlns="http://www.w3.org/2000/svg">
<path fill-rule="evenodd" clip-rule="evenodd" d="M166.767 30.9413L176.368 26.9525C175.839 25.612 174.253 24.6751 172.384 24.6751C169.981 24.6751 166.646 26.7901 166.767 30.9413ZM178.033 34.8048L181.693 37.2445C180.514 38.9931 177.667 42.0032 172.746 42.0032C166.646 42.0032 162.24 37.2816 162.24 31.2659C162.24 24.8746 166.688 20.524 172.217 20.524C177.792 20.524 180.514 24.9581 181.41 27.3606L181.897 28.5805L167.537 34.5173C168.636 36.674 170.343 37.7732 172.746 37.7732C175.143 37.7732 176.813 36.5905 178.033 34.8048ZM154.764 41.3539H159.481V9.78675H154.764V41.3539ZM147.064 31.303C147.064 27.523 144.541 24.754 141.327 24.754C138.076 24.754 135.348 27.523 135.348 31.303C135.348 35.046 138.076 37.7732 141.327 37.7732C144.541 37.7732 147.064 35.046 147.064 31.303ZM151.211 21.178V40.4587C151.211 48.3899 146.535 51.6459 141.002 51.6459C135.794 51.6459 132.663 48.1487 131.485 45.3009L135.594 43.5894C136.327 45.338 138.117 47.4113 141.007 47.4113C144.546 47.4113 146.744 45.2174 146.744 41.108V39.5635H146.582C145.524 40.8669 143.488 42.0032 140.928 42.0032C135.557 42.0032 130.636 37.3233 130.636 31.303C130.636 25.241 135.557 20.524 140.928 20.524C143.493 20.524 145.524 21.6604 146.582 22.9219H146.744V21.1734C146.74 21.178 151.211 21.178 151.211 21.178ZM99.7228 31.2659C99.7228 27.3977 96.9678 24.7586 93.7721 24.7586C90.5764 24.7586 87.8214 27.4024 87.8214 31.2659C87.8214 35.0878 90.5764 37.7732 93.7721 37.7732C96.9632 37.7732 99.7228 35.0878 99.7228 31.2659ZM104.352 31.2659C104.352 37.4486 99.5976 42.0032 93.7675 42.0032C87.9373 42.0032 83.1833 37.4486 83.1833 31.2659C83.1833 25.0416 87.9373 20.5287 93.7675 20.5287C99.6022 20.5287 104.352 25.0416 104.352 31.2659ZM123.447 31.2659C123.447 27.3977 120.692 24.7586 117.496 24.7586C114.3 24.7586 111.545 27.4024 111.545 31.2659C111.545 35.0878 114.3 37.7732 117.496 37.7732C120.692 37.7732 123.447 35.0878 123.447 31.2659ZM128.08 31.2659C128.08 37.4486 123.326 42.0032 117.496 42.0032C111.666 42.0032 106.912 37.4486 106.912 31.2659C106.912 25.0416 111.666 20.5287 117.496 20.5287C123.326 20.5287 128.08 25.0416 128.08 31.2659ZM65.0528 42.0032C55.86 42.0032 48.1329 34.5173 48.1329 25.3245C48.1329 16.1317 55.8647 8.64577 65.0574 8.64577C70.1455 8.64577 73.7632 10.6402 76.4904 13.2468L73.2762 16.461C71.3236 14.629 68.6798 13.2051 65.0574 13.2051C58.3461 13.2051 53.0957 18.6177 53.0957 25.3291C53.0957 32.0405 58.3461 37.4486 65.0574 37.4486C69.408 37.4486 71.8894 35.7 73.4803 34.1137C74.7836 32.8151 75.637 30.9413 75.9617 28.381H65.0574V23.8264H80.3911C80.5581 24.638 80.6369 25.6167 80.6369 26.6742C80.6369 30.0925 79.7 34.3225 76.6945 37.3326C73.7586 40.3799 70.0156 42.0032 65.0528 42.0032Z" fill="#5F6368"/>
<path d="M193.04 41.0567V13.0342H196.641L206.386 30.0982H206.543L216.288 13.0342H219.889V41.0567H216.288V24.4232L216.445 19.7267H216.288L207.521 35.1078H205.408L196.641 19.7267H196.484L196.641 24.4232V41.0567H193.04Z" fill="#63666A"/>
<path d="M230.965 41.6829C228.93 41.6829 227.227 41.0958 225.857 39.9217C224.487 38.7475 223.802 37.2016 223.802 35.2643C223.802 33.1704 224.605 31.5462 226.229 30.3525C227.853 29.1588 229.849 28.5718 232.217 28.5718C234.33 28.5718 236.072 28.9632 237.422 29.7459V29.198C237.422 27.789 236.933 26.654 235.974 25.8126C235.015 24.9711 233.822 24.5406 232.413 24.5406C231.376 24.5406 230.417 24.795 229.575 25.2842C228.734 25.7734 228.147 26.4583 227.834 27.3194L224.546 25.9104C224.996 24.7559 225.857 23.6991 227.168 22.7207C228.479 21.7423 230.201 21.2531 232.334 21.2531C234.781 21.2531 236.816 21.9771 238.44 23.4056C240.064 24.8341 240.866 26.8693 240.866 29.4719V41.0567H237.422V38.3953H237.266C235.837 40.587 233.724 41.6829 230.965 41.6829ZM231.552 38.3953C233.039 38.3953 234.389 37.8474 235.602 36.732C236.816 35.6165 237.422 34.3054 237.422 32.7986C236.405 31.9572 234.878 31.5462 232.843 31.5462C231.102 31.5462 229.771 31.918 228.89 32.6812C228.01 33.4444 227.56 34.325 227.56 35.3426C227.56 36.2819 227.971 37.0255 228.773 37.5734C229.575 38.1213 230.515 38.3953 231.552 38.3953Z" fill="#63666A"/>
<path d="M254.897 41.6829C253.43 41.6829 252.119 41.3698 250.964 40.7436C249.809 40.1174 248.929 39.3346 248.361 38.3953H248.205L248.361 41.0567V49.5104H244.761V21.8792H248.205V24.5406H248.361C248.929 23.6013 249.809 22.8186 250.964 22.1924C252.119 21.5661 253.43 21.2531 254.897 21.2531C257.383 21.2531 259.516 22.2315 261.316 24.1884C263.116 26.1452 264.016 28.5718 264.016 31.468C264.016 34.3641 263.116 36.7907 261.316 38.7475C259.516 40.7044 257.383 41.6829 254.897 41.6829ZM254.31 38.3953C255.974 38.3953 257.422 37.7691 258.615 36.4971C259.809 35.2252 260.416 33.5618 260.416 31.468C260.416 29.3741 259.809 27.7108 258.615 26.4388C257.422 25.1668 255.974 24.5406 254.31 24.5406C252.608 24.5406 251.179 25.1668 249.986 26.4192C248.792 27.6716 248.205 29.3545 248.205 31.468C248.205 33.5814 248.792 35.2643 249.986 36.5167C251.179 37.7691 252.627 38.3953 254.31 38.3953Z" fill="#63666A"/>
<path d="M274.446 41.6829C272.313 41.6829 270.533 41.1545 269.143 40.1174C267.754 39.0802 266.717 37.7691 266.071 36.2036L269.28 34.8729C270.298 37.2799 272.039 38.4736 274.486 38.4736C275.601 38.4736 276.521 38.2192 277.245 37.73C277.969 37.2408 278.321 36.5754 278.321 35.7731C278.321 34.5207 277.44 33.6792 275.699 33.2291L271.824 32.2898C270.591 31.9767 269.437 31.3897 268.341 30.5091C267.245 29.6285 266.697 28.4544 266.697 26.9671C266.697 25.2646 267.441 23.8948 268.948 22.8381C270.454 21.7814 272.235 21.2531 274.29 21.2531C275.992 21.2531 277.499 21.6444 278.83 22.4076C280.161 23.1708 281.119 24.2862 281.687 25.7147L278.556 27.0063C277.851 25.3038 276.384 24.4623 274.172 24.4623C273.096 24.4623 272.196 24.6776 271.472 25.1277C270.748 25.5778 270.376 26.1648 270.376 26.928C270.376 28.0239 271.218 28.7675 272.92 29.1588L276.716 30.059C278.517 30.4699 279.847 31.194 280.708 32.2116C281.57 33.2291 282 34.3837 282 35.6557C282 37.3777 281.296 38.8062 279.887 39.9608C278.478 41.0958 276.658 41.6829 274.446 41.6829Z" fill="#63666A"/>
<path d="M9.93951 38.3434C11.5397 40.3424 13.163 42.847 14.0164 44.3637C15.0554 46.3349 15.4821 47.6661 16.2566 50.0408C16.7112 51.3487 17.1379 51.7476 18.0423 51.7476C19.0303 51.7476 19.4802 51.0797 19.828 50.0408C20.5469 47.8006 21.1081 46.0984 21.9847 44.4704C23.7148 41.3536 25.904 38.58 28.0329 35.9177C28.6173 35.1709 32.351 30.774 34.03 27.2861C34.03 27.2861 36.08 23.4736 36.08 18.1444C36.08 13.163 34.0532 9.69832 34.0532 9.69832L28.1906 11.2706L24.6192 20.6489L23.738 21.9291L23.5524 22.1703L23.3112 22.4625L22.9124 22.9402L22.328 23.5246L19.1555 26.108L11.2428 30.6905L9.93951 38.3434Z" fill="#34A853"/>
<path d="M1.75786 26.6461C3.70124 31.0708 7.4071 34.9344 9.93952 38.3434L23.3437 22.4625C23.3437 22.4625 21.4514 24.9392 18.0423 24.9392C14.2298 24.9392 11.1408 21.9013 11.1408 18.0655C11.1408 15.4264 12.7131 13.6176 12.7131 13.6176L3.62239 16.0433L1.75786 26.6461Z" fill="#FBBC04"/>
<path d="M23.5014 0.825577C27.9494 2.2634 31.7619 5.27354 34.0532 9.72615L23.3391 22.4903C23.3391 22.4903 24.9114 20.6536 24.9114 18.0423C24.9114 14.1231 21.6091 11.1686 18.0377 11.1686C14.6519 11.1686 12.7085 13.6222 12.7085 13.6222V5.57038L23.5014 0.825577Z" fill="#4285F4"/>
<path d="M4.20679 6.447C6.86907 3.27452 11.535 0 17.982 0C21.0989 0 23.4689 0.825588 23.4689 0.825588L12.7085 13.6176H5.08803L4.20679 6.447Z" fill="#1A73E8"/>
<path d="M1.75785 26.6461C1.75785 26.6461 0 23.1536 0 18.1212C0 13.3532 1.86453 9.19278 4.23461 6.47484L12.7363 13.6408L1.75785 26.6461Z" fill="#EA4335"/>
</svg>
